<?xml version="1.0" standalone="no"?><svg xmlns="http://www.w3.org/2000/svg" viewBox="0 0 1440 320"><path fill="#55452f" fill-opacity="1" d="M0,288L34.3,256C68.6,224,137,160,206,149.3C274.3,139,343,181,411,181.3C480,181,549,139,617,144C685.7,149,754,203,823,240C891.4,277,960,299,1029,277.3C1097.1,256,1166,192,1234,192C1302.9,192,1371,256,1406,288L1440,320L1440,0L1405.7,0C1371.4,0,1303,0,1234,0C1165.7,0,1097,0,1029,0C960,0,891,0,823,0C754.3,0,686,0,617,0C548.6,0,480,0,411,0C342.9,0,274,0,206,0C137.1,0,69,0,34,0L0,0Z"></path></svg>