<svg xmlns="http://www.w3.org/2000/svg" viewBox="0 0 399.37 425.85"><defs><style>.cls-1{fill:#fff;fill-opacity:0.2;}.cls-2{fill:#7e8446;}.cls-3{fill:#3e6185;}.cls-4{fill:#f2e9d2;}.cls-5{fill:#6f438f;}.cls-11,.cls-12,.cls-14,.cls-6,.cls-9{fill:none;stroke-linecap:round;stroke-miterlimit:10;}.cls-6{stroke:#43205c;}.cls-7{fill:#4e256b;}.cls-8{fill:#c98665;fill-opacity:0.5;}.cls-9{stroke:#000;stroke-width:2px;}.cls-10{fill:#ff8c94;}.cls-11{stroke:#6f438f;}.cls-12{stroke:#c98665;}.cls-13{fill:#b38bd6;}.cls-14{stroke:#db6c73;}</style></defs><title>Asset 2color</title><g id="Layer_2" data-name="Layer 2"><g id="objects"><circle class="cls-1" cx="199.69" cy="199.69" r="199.69" transform="translate(-82.71 199.69) rotate(-45)"/><circle class="cls-1" cx="199.69" cy="228.35" r="165.67"/><circle class="cls-1" cx="199.69" cy="263.02" r="117.67"/><path class="cls-2" d="M356.19,404.18c0,12-70.67,21.67-157.84,21.67s-157.83-9.7-157.83-21.67,70.66-21.66,157.83-21.66S356.19,392.22,356.19,404.18Z"/><path class="cls-3" d="M201.11,386.79c5.65-1.23,33-8,52.28-28.21-3-2.75-8.09-9.17-12.58-17.73l-40.24,6.27-40.23-6.27c-4.5,8.56-9.59,15-12.59,17.73,19.27,20.19,46.64,27,52.29,28.21V387l.52-.1.53.1Z"/><path class="cls-4" d="M141.12,358.88c-18.79-3.66-52.11-5-66.78,2.75s-23.38,27.21,9,43.56,73.51.61,106.21.31,42.64,6.72,55.78,4.43c33,2.75,73.75-6.22,80.5-21.41,8-18-11.73-35-39.85-33.76s-34.08-2.45-47.53,15.43c-31,7-37.13,7.49-46.76.31s-14.21-.77-21.7-2.75S154.42,353.54,141.12,358.88Z"/><path class="cls-5" d="M160.23,169.54c-9.63,8.71-29.8,7.79-35.15,21.7s.46,36.37,37.59,38.21,75.49-.92,84.51-2.3,27.66-6.41,22.62-26.89-21.09-18.49-26.9-36.37,6.27-50.89-23.53-54.56C195.38,107.19,184.07,146.16,160.23,169.54Z"/><path class="cls-6" d="M220,111.62c9.85-.23,18.11,15.93,15.59,31.64s-7.23,30.6,7.45,39.42,22.46,21.21,9.85,34.39"/><path class="cls-7" d="M179.67,152.08c-10.31,6.88-15,47.57-.68,55.36s52.15,4,53.06-.46c-7.22-8-7.79-22-4.7-36.22s5.28-20.74,4.82-30.14-4.24-24.3-14.67-23.61C206.15,117.47,184.37,135.46,179.67,152.08Z"/><path class="cls-6" d="M221.74,117.58c4.24.46,13.18,14.56,9.74,33s-12.49,43.67,2.06,57.77"/><path class="cls-6" d="M183.11,163c-5.61,7.45,10.78,26.48,2.52,40.57"/><path class="cls-4" d="M283.17,303.26c-1.14-9.86-4.35-22-10.77-54.33s-22-35.76-41.26-42.41-18.8-22.23-17.88-34.38L200.88,171v0l-.23,0-.23,0v0L188,172.14c.92,12.15,1.38,27.74-17.88,34.38s-34.84,10.09-41.26,42.41-9.63,44.47-10.78,54.33,2.53,13.29,11.47,12.61,11.46-16.28,14.21-31.41,5.73-31.17,7.79-30,5.73,18.57,8,21.32,37.85-1,41-1.35c3.18.33,38.84,4,41,1.35s6-20.17,8-21.32,5.05,14.9,7.8,30,5.27,30.72,14.21,31.41S284.32,313.12,283.17,303.26Z"/><path class="cls-8" d="M200.88,198.39a22,22,0,0,0,14.3-5.58c-2.77-6.6-2.42-14.13-1.92-20.67L200.88,171v0l-.23,0-.23,0v0L188,172.14c.49,6.44.84,13.85-1.8,20.38A22.12,22.12,0,0,0,200.88,198.39Z"/><path class="cls-4" d="M228.08,141.27c0,20.59-12.18,37.29-27.2,37.29s-27.2-16.7-27.2-37.29S185.86,104,200.88,104,228.08,120.68,228.08,141.27Z"/><path class="cls-9" d="M190.22,136.61c0,4-6.19,4.93-7.45-.12"/><path class="cls-10" d="M179.1,150.25a6.65,6.65,0,1,0,6.65-6.65A6.64,6.64,0,0,0,179.1,150.25Z"/><path class="cls-11" d="M190.22,125.38a7.88,7.88,0,0,0-7.68,1.83"/><path class="cls-2" d="M241.57,288.28c3.62-13.45,6.93-29.34,6.93-29.34-9-13.14-9.64-30.56-9.34-49.51-7.24-2.76-13.26-5.81-13.26-5.81,2.71,12.53,9.34,51.35-23.22,51.35A65.91,65.91,0,0,1,199,273.2c-.2-6.6-.39-12.82-.55-18.23-32.55,0-25.92-38.82-23.21-51.35,0,0-6,3-13.26,5.81.3,18.95-.3,36.37-9.35,49.51,0,0,3.32,15.89,6.94,29.34s7.23,33.32-1.21,55.93c3.14,1.18,12.62,2.9,22.28,3.56,36.21,4.37,57.26-1.74,62.13-3.56C234.33,321.6,238,301.73,241.57,288.28Z"/><path class="cls-4" d="M270.21,294.09c-10.95-1.15-38-6.19-49.82-14.44S207.88,268,208.77,253.74s-3.8-22-6-20.63-2,18.57-1.56,33.7-1.34,20.4,5.13,24.3,35.75,19.94,50.94,24.76c18.32,6.18,26.58,1.83,25.47-10.55S270.21,294.09,270.21,294.09Z"/><path class="cls-4" d="M131.86,294.09c10.94-1.15,38-6.19,49.82-14.44s12.51-11.69,11.61-25.91,3.8-22,6-20.63,2,18.57,1.57,33.7,1.34,20.4-5.14,24.3S160,311.05,144.81,315.87c-18.31,6.18-26.58,1.83-25.46-10.55S131.86,294.09,131.86,294.09Z"/><path class="cls-12" d="M193.35,254.65l-.06-.91c-.89-14.21,3.8-22,6-20.63s2,18.57,1.57,33.7c-.34,11.32.58,17.12-1.65,21"/><path class="cls-13" d="M220.13,110.48c.46-17.88-27.4-30.55-39.88-13.76-8.64,11.62,1.07,13.22-16.66,29-19.15,17,1.22,33.39-5.65,43.71s-31.48,24.37-15,48,40.66.59,39.58-13.44c-1.53-19.79-14.11-31-4.89-41.57,10.16-11.62,11.61-16.43,10.7-28.58s8.25-34.08,26.51-22.39C219,114.14,219.9,112.54,220.13,110.48Z"/><path class="cls-5" d="M201.57,100.24c-8.82,1.12-12.81,13.25-12.9,27.18,1.91-11.91,10.83-25.86,26.19-16a9.74,9.74,0,0,0,2.49,1.29C214.6,106.48,210.48,99.1,201.57,100.24Z"/><path class="cls-12" d="M129.36,298.52c2-2.14,5.35-4.58,13.91-6.11"/><path class="cls-12" d="M106.59,372.64c6.72-5.2,31.78-6.42,58.22,4.89s34.85,15.74,55.63,11,36.06-3.66,35.76,5.66-3.36,14.82-9.93,15.58"/><path class="cls-12" d="M134.55,369.28c-.15-6,6.27-11.92,15-11.16"/><path class="cls-12" d="M256.05,392.35c.45,3.52-3.21,4.74-7.8,4.13a11.41,11.41,0,0,1-3.36.31"/><path class="cls-12" d="M246.11,400.45c2.45.31,7.95.61,9.33-1.07"/><path class="cls-12" d="M245.27,403.66c2.29.46,8,.92,9.25-.46"/><path class="cls-12" d="M243.82,406.87c1.83.76,6,1.68,7.64.61"/><path class="cls-12" d="M238.78,369.89c11.76-4,46-8.86,57.15,4.13"/><path class="cls-12" d="M138.37,361.33c-1.83,2.45,2.14,5.2,7.65,4.74a6.74,6.74,0,0,0,2.6,1.37"/><path class="cls-12" d="M135.47,365.61c-.3,2,4.59,3.36,7.95,3.06"/><path class="cls-12" d="M200.4,243.85c-1.53.46-2.14,9-2.14,16"/><path class="cls-12" d="M200.23,236.67c-1.53-.16-3.82,5.8-4.28,19"/><path class="cls-12" d="M209.1,254.65c0-.3,0-.6.05-.91.89-14.21-3.8-22-6-20.63s-2,18.57-1.56,33.7c.33,11.32-.59,17.12,1.64,21"/><path class="cls-12" d="M202,243.85c1.53.46,2.14,9,2.14,16"/><path class="cls-12" d="M202.21,236.67c1.53-.16,3.83,5.8,4.28,19"/><path class="cls-6" d="M217.27,112.19c-3.44-8.94-11.35-16.16-20.29-9.85s-8.71,24.75-8.71,33.92"/><path class="cls-6" d="M193,106.88c3.44-4,12.45-4,16.92,2.05"/><path class="cls-6" d="M190.56,112.42c1.38-3.21,8.25-4.92,11.69-3.78"/><path class="cls-6" d="M141.74,188.07c-4.7,8.48-8.94,19.83,4.47,33.47"/><path class="cls-6" d="M188.35,90.39c-9.17,5.62,2.67,20-18.53,34.07s-.35,26.82-2.64,45.84-32.89,26.83-21.89,49.06"/><path class="cls-9" d="M210.62,136.61c0,4,6.19,4.93,7.45-.12"/><path class="cls-12" d="M197.55,147.73c1.61,1.94,4.36,2.4,6.65.11"/><path class="cls-14" d="M196.12,155.86c1.26,3.79,6.65,5.5,9.51-.11"/><path class="cls-10" d="M221.74,150.25a6.65,6.65,0,1,1-6.65-6.65A6.64,6.64,0,0,1,221.74,150.25Z"/><path class="cls-11" d="M210.62,125.38a7.88,7.88,0,0,1,7.68,1.83"/></g></g></svg>