<?xml version="1.0" encoding="iso-8859-1"?>
<!-- Generator: Adobe Illustrator 19.0.0, SVG Export Plug-In . SVG Version: 6.00 Build 0)  -->
<svg version="1.1" id="Capa_1" xmlns="http://www.w3.org/2000/svg" xmlns:xlink="http://www.w3.org/1999/xlink" x="0px" y="0px"
	 viewBox="0 0 405.2 405.2" style="enable-background:new 0 0 405.2 405.2;" xml:space="preserve">
<g>
	<g>
		<path style="fill:#484338;" d="M336.6,74c-30.4-30-70.4-50-115.2-54.4v-0.8c0-5.2-2-9.6-5.6-13.2c-3.2-3.2-8-5.6-13.2-5.6c-4.8,0-9.6,2-12.8,5.2
			l-0.4,0.4c-3.2,3.2-5.6,8-5.6,13.2v0.4C139,23.6,98.6,43.6,68.6,73.6c-34.4,34-56,81.2-56.4,133.2c0,3.2,2.4,6,5.6,6
			c3.2,0,6-2.4,6-5.6c0.4-15.2,6.8-28.8,16.8-38.4c10-9.6,23.6-16,38.8-16s29.2,6.4,39.6,16.4c10,10,16.4,24,16.4,39.6
			c0,3.2,2.8,5.6,6,5.6s5.6-2.8,5.6-5.6c0-15.2,6.4-29.2,16.4-39.6c5.6-5.6,12.8-10.4,20.8-13.2v190c0,1.2,0,3.2,0,4.8
			c0,4.8,0.4,7.6-5.2,13.2c-2,2-4.4,3.6-7.2,4.8c-2.4,1.2-5.2,1.6-8.4,1.6c-2.8,0-5.6-0.4-8.4-1.6s-5.2-2.8-7.2-4.8
			s-3.6-4.4-4.8-7.2c-1.2-2.4-1.6-5.2-1.6-8.4c0-4.8-2-9.2-5.2-12.4c-3.2-3.2-7.6-5.2-12.4-5.2c-4.8,0-9.2,2-12.4,5.2
			c-3.2,3.2-5.2,7.6-5.2,12.4c0,7.6,1.6,14.8,4.4,21.6c2.8,6.8,7.2,13.2,12.4,18.4c5.2,5.2,11.2,9.2,18.4,12.4
			c6.8,2.8,14,4.4,21.6,4.4c7.6,0,14.8-1.6,21.6-4.4c6.8-2.8,13.2-7.2,18.4-12.4c4.8-4.8,9.2-12,12.4-19.6
			c3.2-7.6,5.2-15.6,5.2-22.4v-190c8,2.8,14.8,7.2,20.8,13.2c10,10,16.4,24,16.4,39.6c0,3.2,2.4,5.6,5.6,5.6s6-2.4,6-5.6
			c0-15.2,6.4-29.2,16.4-39.6c10-10,24-16.4,39.6-16.4c15.2,0,28.8,6,38.8,16s16.4,23.2,16.8,38.4c0,3.2,2.8,5.6,6,5.6s6-2.8,6-6
			C392.6,155.2,371,108,336.6,74z M197.4,14l0.4-0.4c1.2-1.2,2.8-2,4.8-2s3.6,0.8,4.8,2c1.2,1.2,2,2.8,2,4.8H209c-2.4,0-4.8,0-6.8,0
			c-1.6,0.4-3.6,0.4-6.4,0.4C195.4,16.8,196.2,15.2,197.4,14z M135.4,171.6c-2.4-3.6-5.2-7.2-8.4-10.4c-12-12-28.8-19.6-47.6-19.6
			c-18.4,0-34.8,7.2-46.8,19.2c-1.2,1.2-2,2-3.2,3.2c8-31.6,24.8-59.6,47.2-82c26.8-26.4,62-44.4,101.2-50
			c-12,10.8-20.8,27.2-27.6,46.8C141.4,105.2,137,138,135.4,171.6z M210.2,346.4h-0.4c0,5.2-1.6,12-4.4,18c-2.8,6.4-6.4,12-10,16
			c-4,4-9.2,7.6-14.4,9.6s-11.2,3.2-17.2,3.2s-12-1.2-17.2-3.2c-5.6-2.4-10.4-5.6-14.4-9.6s-7.6-9.2-9.6-14.4
			c-2-5.2-3.2-11.2-3.2-17.2c0-1.6,0.8-3.2,1.6-4c1.2-1.2,2.4-1.6,4-1.6c1.6,0,3.2,0.8,4,1.6c1.2,1.2,1.6,2.4,1.6,4
			c0,4.4,0.8,8.8,2.4,12.8c1.6,4,4,7.6,7.2,10.8s6.8,5.6,10.8,7.2c4,1.6,8.4,2.4,12.8,2.4c4.4,0,8.8-0.8,12.8-2.4
			c4-1.6,7.6-4,10.8-7.2c9.2-9.2,8.8-13.6,8.4-21.6c0-1.2,0-2.4,0-4.4V153.6c2.4-0.4,4.8-0.4,7.2-0.4c2.4,0,4.8,0.4,7.2,0.4V346.4z
			 M250.2,161.2c-9.2-8.8-20.4-15.2-33.6-18c-4.8-0.8-9.2-1.6-14-1.6c-18.4,0-35.6,7.6-47.6,19.6c-2.8,2.8-5.6,6-8,9.2
			c1.2-32.4,5.6-63.2,14-88.4c8.8-26.8,22.4-46,41.6-52c19.2,6,32.4,25.2,41.6,52c8.4,24.8,12.8,56,14,88.4
			C255.8,167.2,253.4,164,250.2,161.2z M372.6,160.8c-12-12-28.8-19.2-46.8-19.2c-18.4,0-35.6,7.6-47.6,19.6
			c-3.2,3.2-6,6.8-8.4,10.4c-1.2-33.6-6-66.4-14.8-92.8c-6.4-19.6-15.6-36-27.6-46.8c39.2,5.6,74.4,23.6,101.2,50
			c22.4,22.4,39.2,50.4,47.2,82C374.6,162.8,373.8,161.6,372.6,160.8z"/>
	</g>
</g>
<g>
</g>
<g>
</g>
<g>
</g>
<g>
</g>
<g>
</g>
<g>
</g>
<g>
</g>
<g>
</g>
<g>
</g>
<g>
</g>
<g>
</g>
<g>
</g>
<g>
</g>
<g>
</g>
<g>
</g>
</svg>
